#N canvas 0 60 1444 973 10;
#X obj 49 584 bng 15 250 50 0 empty empty empty 17 7 0 10 -262144 -1
-1;
#X obj 145 658 delay 1000;
#X obj 82 576 delay 500;
#X obj 128 629 delay 100;
#X obj 49 701 bng 15 250 50 0 empty empty empty 17 7 0 10 -262144 -1
-1;
#X floatatom 241 782 0 0 0 0 - - -;
#X obj 175 764 + 1;
#X obj 175 728 float;
#X obj 241 805 % 5;
#X obj 241 832 select 4;
#X msg 240 710 0;
#X obj 133 528 unpack f f f f f;
#X obj 49 546 t b;
#X obj 286 783 - 1;
#X obj 286 720 r repeticoes1;
#X obj 49 753 send trigger1;
#X obj 561 599 bng 15 250 50 0 empty empty empty 17 7 0 10 -262144
-1 -1;
#X obj 642 604 delay 200;
#X obj 561 692 bng 15 250 50 0 empty empty empty 17 7 0 10 -262144
-1 -1;
#X floatatom 762 770 0 0 0 0 - - -;
#X obj 712 752 + 1;
#X obj 712 713 float;
#X obj 762 791 % 5;
#X obj 762 817 select 4;
#X msg 762 695 0, f 2;
#X obj 670 546 unpack f f f f f;
#X obj 561 564 t b;
#X obj 807 785 - 1;
#X obj 561 715 send trigger2;
#X obj 807 718 r repeticoes2;
#X obj 970 668 bng 15 250 50 0 empty empty empty 17 7 0 10 -262144
-1 -1;
#X obj 1103 656 delay 1000;
#X obj 1086 628 delay 100;
#X obj 970 726 bng 15 250 50 0 empty empty empty 17 7 0 10 -262144
-1 -1;
#X floatatom 1171 794 0 0 0 0 - - -;
#X obj 1127 776 + 1;
#X obj 1127 739 float;
#X obj 1171 817 % 5;
#X obj 1171 844 select 4;
#X msg 1171 723 0;
#X obj 1091 538 unpack f f f f f;
#X obj 970 635 t b;
#X obj 1216 804 - 1;
#X obj 1216 740 r repeticoes3;
#X obj 970 764 send trigger3;
#X obj 347 778 trigger b;
#X obj 878 779 trigger b;
#X obj 1276 778 trigger b;
#X obj 45 50 OSC/unpackOSC;
#X obj 45 25 iemnet/udpreceive 9001;
#X obj 45 82 OSC/routeOSC /adress;
#X obj 45 162 % 40;
#X obj 45 186 + 60;
#X obj 448 252 % 80;
#X obj 448 274 + 20;
#X obj 45 298 print Frequência escolhida (Hz);
#X obj 139 109 print Valores captados (Altura-Largura-Coloração)
;
#X obj 180 68 print -------------- UDP Message Received ------------------
;
#X obj 619 581 delay 700;
#X obj 688 648 delay 100;
#X floatatom 230 446 5 0 0 0 - - -, f 5;
#X obj 230 467 sel 0;
#X floatatom 643 447 5 0 0 0 - - -, f 5;
#X obj 643 468 sel 0;
#X obj 175 686 delay 700;
#X obj 659 626 delay 1300;
#X obj 712 671 delay 400;
#X obj 99 603 delay 1500;
#X obj 45 210 mtof;
#X obj 112 228 s frequency1;
#X obj 113 251 s frequency2;
#X obj 257 570 s duration1;
#X obj 257 544 * 100;
#X obj 565 516 * 100;
#X obj 565 538 s duration2;
#X obj 45 137 unpack f f;
#X obj 45 110 list split 2;
#X obj 671 292 * 100;
#X obj 671 315 print Duração escolhida (ms);
#X obj 719 525 print sino 2 escolhido!;
#X obj 103 887 print Sino 1 encerrado. Capture suas informações novamente!
;
#X obj 607 854 print Sino 2 encerrado. Capture suas informações novamente!
;
#X obj 299 528 print sino 1 escolhido!;
#X obj 560 752 print Toque do sino 2!;
#X obj 49 784 print Toque do sino 1!;
#X obj 35 404 expr $f1 \; if ($f1 <=40 && $f1 >=20 \, $f1 \, 0);
#X obj 448 404 expr $f1 \; if ($f1 <=80 && $f1 >=41 \, $f1 \, 0);
#X floatatom 1123 443 5 0 0 0 - - -, f 5;
#X obj 1123 467 sel 0;
#X obj 113 274 s frequency3;
#X obj 1068 908 print Sino 3 encerrado. Capture suas informações
novamente!;
#X obj 970 787 print Toque do sino 3!;
#X obj 973 490 * 100;
#X obj 1222 517 print sino 3 escolhido!;
#X obj 1040 576 delay 200;
#X obj 1063 600 delay 300;
#X obj 1127 688 delay 1000;
#X obj 973 512 s duration3;
#X obj 922 406 expr $f1 \; if ($f1 <=100 && $f1 >=81 \, $f1 \, 0);
#X connect 0 0 2 0;
#X connect 0 0 4 0;
#X connect 1 0 4 0;
#X connect 1 0 64 0;
#X connect 2 0 4 0;
#X connect 2 0 67 0;
#X connect 3 0 1 0;
#X connect 3 0 4 0;
#X connect 4 0 15 0;
#X connect 4 0 84 0;
#X connect 5 0 8 0;
#X connect 6 0 5 0;
#X connect 6 0 7 1;
#X connect 7 0 6 0;
#X connect 8 0 9 0;
#X connect 9 0 10 0;
#X connect 9 0 80 0;
#X connect 9 1 45 0;
#X connect 10 0 7 1;
#X connect 11 0 2 1;
#X connect 11 0 12 0;
#X connect 11 1 67 1;
#X connect 11 2 3 1;
#X connect 11 3 1 1;
#X connect 11 4 64 1;
#X connect 12 0 0 0;
#X connect 13 0 9 1;
#X connect 14 0 8 1;
#X connect 14 0 13 0;
#X connect 16 0 18 0;
#X connect 16 0 58 0;
#X connect 17 0 18 0;
#X connect 17 0 65 0;
#X connect 18 0 28 0;
#X connect 18 0 83 0;
#X connect 19 0 22 0;
#X connect 20 0 19 0;
#X connect 20 0 21 1;
#X connect 21 0 20 0;
#X connect 22 0 23 0;
#X connect 23 0 24 0;
#X connect 23 0 81 0;
#X connect 23 1 46 0;
#X connect 24 0 21 1;
#X connect 25 0 26 0;
#X connect 25 0 58 1;
#X connect 25 1 17 1;
#X connect 25 2 65 1;
#X connect 25 3 59 1;
#X connect 25 4 66 1;
#X connect 26 0 16 0;
#X connect 27 0 23 1;
#X connect 29 0 22 1;
#X connect 29 0 27 0;
#X connect 30 0 33 0;
#X connect 30 0 94 0;
#X connect 31 0 33 0;
#X connect 31 0 96 0;
#X connect 32 0 31 0;
#X connect 32 0 33 0;
#X connect 33 0 44 0;
#X connect 33 0 91 0;
#X connect 34 0 37 0;
#X connect 35 0 34 0;
#X connect 35 0 36 1;
#X connect 36 0 35 0;
#X connect 37 0 38 0;
#X connect 38 0 39 0;
#X connect 38 0 90 0;
#X connect 38 1 47 0;
#X connect 39 0 36 1;
#X connect 40 0 41 0;
#X connect 40 0 94 1;
#X connect 40 1 95 1;
#X connect 40 2 32 1;
#X connect 40 3 31 1;
#X connect 40 4 96 1;
#X connect 41 0 30 0;
#X connect 42 0 38 1;
#X connect 43 0 37 1;
#X connect 43 0 42 0;
#X connect 45 0 0 0;
#X connect 46 0 16 0;
#X connect 47 0 30 0;
#X connect 48 0 50 0;
#X connect 48 1 57 0;
#X connect 49 0 48 0;
#X connect 50 0 56 0;
#X connect 50 0 76 0;
#X connect 51 0 52 0;
#X connect 52 0 68 0;
#X connect 53 0 54 0;
#X connect 54 0 77 0;
#X connect 54 0 85 0;
#X connect 54 0 86 0;
#X connect 54 0 98 0;
#X connect 58 0 17 0;
#X connect 58 0 18 0;
#X connect 59 0 18 0;
#X connect 59 0 66 0;
#X connect 60 0 61 0;
#X connect 61 1 11 0;
#X connect 61 1 72 0;
#X connect 61 1 82 0;
#X connect 62 0 63 0;
#X connect 63 1 25 0;
#X connect 63 1 73 0;
#X connect 63 1 79 0;
#X connect 64 0 7 0;
#X connect 65 0 18 0;
#X connect 65 0 59 0;
#X connect 66 0 21 0;
#X connect 67 0 3 0;
#X connect 67 0 4 0;
#X connect 68 0 69 0;
#X connect 68 0 70 0;
#X connect 68 0 55 0;
#X connect 68 0 89 0;
#X connect 72 0 71 0;
#X connect 73 0 74 0;
#X connect 75 0 51 0;
#X connect 75 1 53 0;
#X connect 76 0 75 0;
#X connect 77 0 78 0;
#X connect 85 1 60 0;
#X connect 86 1 62 0;
#X connect 87 0 88 0;
#X connect 88 1 92 0;
#X connect 88 1 40 0;
#X connect 88 1 93 0;
#X connect 92 0 97 0;
#X connect 94 0 33 0;
#X connect 94 0 95 0;
#X connect 95 0 32 0;
#X connect 95 0 33 0;
#X connect 96 0 36 0;
#X connect 98 1 87 0;
