#N canvas 0 59 1920 973 10;
#X obj 116 75 * 100;
#X obj 36 75 mtof;
#X obj 37 17 bng 15 250 50 0 empty empty Sino_1 17 7 0 10 -262144 -1
-1;
#X msg 191 44 list 500 200 100 1000 100;
#X msg 260 71 5;
#X msg 114 46 200;
#X msg 36 44 77;
#X obj 115 327 * 100;
#X obj 35 327 mtof;
#X obj 36 269 bng 15 250 50 0 empty empty Sino_3 17 7 0 10 -262144
-1 -1;
#X msg 202 299 list 300 100 300 100 800;
#X msg 278 326 10;
#X msg 115 301 250;
#X msg 36 301 80;
#X obj 114 201 * 100;
#X obj 34 201 mtof;
#X obj 35 143 bng 15 250 50 0 empty empty Sino_2 17 7 0 10 -262144
-1 -1;
#X msg 201 173 list 300 100 300 100 800;
#X msg 277 200 10;
#X msg 114 175 250;
#X msg 35 175 80;
#X obj 35 352 s frequency3;
#X obj 115 352 s duration3;
#X obj 202 355 s ritmo3;
#X obj 278 354 s repeticoes3;
#X obj 34 226 s frequency2;
#X obj 114 226 s duration2;
#X obj 201 229 s ritmo2;
#X obj 277 228 s repeticoes2;
#X obj 262 101 s repeticoes1;
#X obj 191 100 s ritmo1;
#X obj 116 100 s duration1;
#X obj 36 100 s frequency1;
#X connect 0 0 31 0;
#X connect 1 0 32 0;
#X connect 2 0 3 0;
#X connect 2 0 6 0;
#X connect 2 0 5 0;
#X connect 2 0 4 0;
#X connect 3 0 30 0;
#X connect 4 0 29 0;
#X connect 5 0 0 0;
#X connect 6 0 1 0;
#X connect 7 0 22 0;
#X connect 8 0 21 0;
#X connect 9 0 10 0;
#X connect 9 0 13 0;
#X connect 9 0 12 0;
#X connect 9 0 11 0;
#X connect 10 0 23 0;
#X connect 11 0 24 0;
#X connect 12 0 7 0;
#X connect 13 0 8 0;
#X connect 14 0 26 0;
#X connect 15 0 25 0;
#X connect 16 0 17 0;
#X connect 16 0 20 0;
#X connect 16 0 19 0;
#X connect 16 0 18 0;
#X connect 17 0 27 0;
#X connect 18 0 28 0;
#X connect 19 0 14 0;
#X connect 20 0 15 0;
